<svg width="33" height="33" viewBox="0 0 33 33" fill="none" xmlns="http://www.w3.org/2000/svg">
<path d="M0 32.375H2.3125V26.5938C2.31434 25.061 2.92402 23.5916 4.00782 22.5078C5.09161 21.424 6.56103 20.8143 8.09375 20.8125V18.5C5.94791 18.5024 3.89065 19.356 2.37331 20.8733C0.855967 22.3907 0.00244808 24.4479 0 26.5938V32.375Z" fill="#3F6561"/>
<path d="M9.25 32.375H11.5625V26.5938C11.5643 25.061 12.174 23.5916 13.2578 22.5078C14.3416 21.424 15.811 20.8143 17.3438 20.8125H24.2812C25.814 20.8143 27.2834 21.424 28.3672 22.5078C29.451 23.5916 30.0607 25.061 30.0625 26.5938V32.375H32.375V26.5938C32.3726 24.4479 31.519 22.3907 30.0017 20.8733C28.4843 19.356 26.4271 18.5024 24.2812 18.5H17.3438C15.1979 18.5024 13.1407 19.356 11.6233 20.8733C10.106 22.3907 9.25245 24.4479 9.25 26.5938V32.375Z" fill="#3F6561"/>
<path d="M11.5625 0V2.3125C10.0292 2.3125 8.55873 2.92159 7.47454 4.00579C6.39034 5.08998 5.78125 6.56047 5.78125 8.09375C5.78125 9.62703 6.39034 11.0975 7.47454 12.1817C8.55873 13.2659 10.0292 13.875 11.5625 13.875V16.1875C9.4159 16.1875 7.35723 15.3348 5.83935 13.8169C4.32148 12.299 3.46875 10.2403 3.46875 8.09375C3.46875 5.94715 4.32148 3.88848 5.83935 2.3706C7.35723 0.852732 9.4159 0 11.5625 0Z" fill="#3F6561"/>
<path d="M20.8125 2.3125C19.6691 2.3125 18.5513 2.65156 17.6006 3.28682C16.6499 3.92207 15.9089 4.82498 15.4713 5.88136C15.0337 6.93775 14.9193 8.10016 15.1423 9.22162C15.3654 10.3431 15.916 11.3732 16.7245 12.1817C17.5331 12.9902 18.5632 13.5408 19.6846 13.7639C20.8061 13.987 21.9685 13.8725 23.0249 13.4349C24.0813 12.9974 24.9842 12.2564 25.6194 11.3056C26.2547 10.3549 26.5937 9.23717 26.5937 8.09375C26.5937 6.56047 25.9847 5.08998 24.9005 4.00579C23.8163 2.92159 22.3458 2.3125 20.8125 2.3125ZM20.8125 0C22.4133 0 23.9781 0.47469 25.3091 1.36404C26.6402 2.2534 27.6775 3.51747 28.2901 4.99641C28.9027 6.47535 29.063 8.10273 28.7507 9.67276C28.4384 11.2428 27.6676 12.685 26.5356 13.8169C25.4037 14.9488 23.9615 15.7197 22.3915 16.032C20.8215 16.3443 19.1941 16.184 17.7152 15.5714C16.2362 14.9588 14.9721 13.9214 14.0828 12.5904C13.1934 11.2594 12.7187 9.69454 12.7187 8.09375C12.7187 5.94715 13.5715 3.88848 15.0894 2.3706C16.6072 0.852732 18.6659 0 20.8125 0Z" fill="#3F6561"/>
</svg>
