<svg width="35" height="35" viewBox="0 0 35 35" fill="none" xmlns="http://www.w3.org/2000/svg">
<path d="M2.81129 5.9375L12.2969 15.3104V5.9375H14.7918L23.8594 15.1345V0.15625H34.8438V34.8438H0.15625V5.9375H2.81129ZM2.46875 32.5312H32.5312V2.46875H26.1719V18.0781H23.5141L14.6094 9.04622V18.0781H11.8081L2.46875 8.8498V32.5312Z" fill="#3F6561"/>
<path d="M26.1719 22.7031V23.2812H23.8594V20.9688H26.1719V22.7031Z" fill="#3F6561"/>
<path d="M26.1719 26.1719H23.8594V28.4844H26.1719V26.1719Z" fill="#3F6561"/>
<path d="M20.3906 22.7031V23.2812H18.0781V20.9688H20.3906V22.7031Z" fill="#3F6561"/>
<path d="M20.3906 26.1719H18.0781V28.4844H20.3906V26.1719Z" fill="#3F6561"/>
<path d="M14.6094 22.7031V23.2812H12.2969V20.9688H14.6094V22.7031Z" fill="#3F6561"/>
<path d="M14.6094 26.1719H12.2969V28.4844H14.6094V26.1719Z" fill="#3F6561"/>
<path d="M8.82812 20.9688H6.51562V23.2812H8.82812V20.9688Z" fill="#3F6561"/>
<path d="M8.82812 26.1719H6.51562V28.4844H8.82812V26.1719Z" fill="#3F6561"/>
</svg>
