<svg width="38" height="37" viewBox="0 0 38 37" fill="none" xmlns="http://www.w3.org/2000/svg">
<path fill-rule="evenodd" clip-rule="evenodd" d="M36.8707 1.56244L35.8582 1.40138L35.5925 0.410359L37.12 0L36.8717 1.56244H36.8707ZM23.3084 15.7506L22.4353 16.2882L22.4333 16.2861L22.4302 16.281L22.4199 16.2646L22.3851 16.2061C22.3563 16.1569 22.3132 16.085 22.262 15.9937C22.1182 15.7425 21.9797 15.4884 21.8465 15.2315C21.4248 14.4239 21.0567 13.5894 20.7446 12.7334C20.3979 11.765 20.1004 10.656 20.0542 9.5829C20.0091 8.51392 20.2081 7.35363 21.0042 6.44366C21.7193 5.62705 23.0673 4.87506 24.484 4.22464C25.9521 3.54858 27.6797 2.90021 29.316 2.33905C31.3428 1.64685 33.3901 1.01598 35.455 0.447291L35.5576 0.418566L35.5935 0.408307L35.8602 1.40035L36.8728 1.56142L36.8666 1.59937L36.8492 1.70812C36.7468 2.33749 36.6394 2.96604 36.527 3.59372C36.2537 5.13728 35.9555 6.67633 35.6325 8.21025C35.2672 9.93479 34.8425 11.7424 34.3922 13.2556C34.1675 14.0117 33.9315 14.7103 33.6874 15.2971C33.4535 15.8614 33.1765 16.4092 32.84 16.795C32.1198 17.6177 30.9985 17.8752 30.0188 17.9409C28.997 18.0096 27.8644 17.8855 26.8457 17.7049C25.9371 17.5413 25.0373 17.3324 24.1496 17.0791C23.7864 16.9768 23.4252 16.8674 23.0663 16.7508L23.0016 16.7283L22.9842 16.7221L22.9791 16.7211H22.977L23.3094 15.7496L23.3084 15.7506ZM23.3084 15.7506L22.4353 16.2882L22.6282 16.6011L22.977 16.7211L23.3084 15.7506ZM23.9978 14.896C25.0481 15.2239 26.1173 15.4877 27.1996 15.686C28.1475 15.8532 29.0954 15.9476 29.8813 15.8942C30.7112 15.8388 31.1278 15.6357 31.295 15.4449C31.4017 15.3218 31.5761 15.0304 31.7915 14.5113C31.9977 14.0158 32.2111 13.391 32.4245 12.6719C32.8523 11.2356 33.2637 9.48852 33.6248 7.78656C33.9713 6.13992 34.2887 4.48728 34.5768 2.82942L34.2598 2.92175C33.1221 3.25722 31.5853 3.73016 29.9818 4.28004C28.3753 4.83095 26.7205 5.45367 25.3407 6.0887C23.9085 6.74733 22.9421 7.34542 22.5482 7.79579C22.2332 8.15486 22.0711 8.70781 22.105 9.49468C22.1378 10.2774 22.3625 11.1669 22.6764 12.0399C22.9862 12.9037 23.3638 13.7019 23.6674 14.2866C23.7957 14.5329 23.9095 14.7401 23.9978 14.896ZM4.37339 4.14462L4.10768 5.13564L3.09409 5.29671L2.84583 3.73529L4.37441 4.14565L4.37339 4.14462ZM14.3061 16.797L15.1792 17.3336L15.1812 17.3315L15.1833 17.3274L15.1915 17.3141L15.2212 17.2648C15.3759 17.0013 15.5237 16.7338 15.6644 16.4626C15.9352 15.9414 16.281 15.2141 16.5703 14.4097C16.8555 13.6137 17.1037 12.6914 17.1417 11.7927C17.1807 10.8971 17.0145 9.89785 16.323 9.10791C15.7116 8.40825 14.58 7.78451 13.431 7.25514C12.2297 6.70218 10.8191 6.17282 9.48646 5.7163C7.83591 5.15257 6.16876 4.63871 4.48726 4.1754L4.40314 4.15283L4.37339 4.14462L4.10768 5.13564L3.09409 5.29671L3.09922 5.32748L3.11358 5.41674L3.16898 5.75118C3.4458 7.41059 3.7574 9.06402 4.10357 10.7104C4.40108 12.1138 4.74784 13.588 5.11511 14.8242C5.29977 15.4418 5.49264 16.0173 5.69474 16.5026C5.88658 16.9642 6.12151 17.4351 6.41697 17.7716C7.05303 18.5 8.03071 18.7154 8.84014 18.7688C9.69369 18.8262 10.6303 18.7226 11.4664 18.5759C12.5162 18.3874 13.5515 18.1255 14.5646 17.7921L14.617 17.7747L14.6324 17.7696L14.6375 17.7675L14.3061 16.797ZM14.3061 16.797L15.1792 17.3336L14.9863 17.6475L14.6375 17.7675L14.3061 16.797ZM13.6157 15.9414C14.0166 15.2291 14.3586 14.4852 14.6385 13.7173C14.8899 13.0166 15.0663 12.3138 15.092 11.7045C15.1186 11.091 14.9894 10.6991 14.7791 10.458C14.4887 10.1277 13.7398 9.65574 12.5734 9.1192C11.4613 8.60728 10.1235 8.10356 8.82065 7.6573C7.68566 7.26983 6.54255 6.90658 5.3921 6.56779L5.3962 6.59344C5.57061 7.5783 5.81887 8.90786 6.11125 10.2856C6.40364 11.6665 6.73705 13.0792 7.08175 14.2394C7.25513 14.8201 7.42543 15.3218 7.58957 15.7157C7.76397 16.1333 7.89529 16.3456 7.96095 16.4215C8.04507 16.5169 8.31693 16.678 8.97761 16.7221C9.59418 16.7632 10.3472 16.6893 11.1105 16.5549C11.9575 16.4022 12.7942 16.197 13.6157 15.9404V15.9414ZM11.369 25.7223C11.1084 25.7367 10.9812 25.7736 10.9484 25.788C10.4836 25.9983 9.07199 26.4907 7.85323 26.9062C7.22743 27.1206 6.62728 27.3217 6.18409 27.4704L6.15537 27.4807V33.0236C6.33593 33.0154 6.52982 33.0082 6.72782 33.0011C7.57726 32.9703 8.58777 32.9395 9.02583 32.958C10.8642 33.0308 12.2451 33.4658 13.5234 33.869L13.5511 33.8782C14.7493 34.2557 15.8593 34.6025 17.313 34.7122C17.7234 34.743 18.1225 34.783 18.4949 34.82H18.5C19.9301 34.9636 20.8719 35.0354 21.6013 34.7707C22.1686 34.5645 24.246 33.6012 26.3409 32.5476C27.3771 32.0265 28.3927 31.4961 29.2001 31.0416C29.6053 30.8138 29.949 30.6107 30.2127 30.4404C30.344 30.3553 30.4486 30.2835 30.5286 30.225C30.5601 30.2019 30.5909 30.178 30.621 30.1532L30.6497 30.1285C30.7523 30.0249 30.861 29.6638 30.6846 29.3242C30.6015 29.1654 30.4643 29.0417 30.2978 28.9754C30.0926 28.8862 29.7438 28.8174 29.1898 28.9088C27.9403 29.1139 26.4476 29.7151 24.957 30.3214L24.9365 30.3306C24.204 30.6282 23.4694 30.9267 22.818 31.1442C22.1922 31.3524 21.4977 31.5392 20.8924 31.5032C20.0614 31.452 18.6036 31.2365 17.4012 31.0416C16.7103 30.9299 16.0202 30.8129 15.331 30.6907L15.1976 30.6671L15.1504 30.6579L15.3454 28.6225L20.0337 28.679H20.044C20.0987 28.673 20.1529 28.6627 20.2061 28.6482C20.3681 28.6071 20.6462 28.5056 20.996 28.2583C21.1037 28.1814 21.2453 28.0398 21.3776 27.85C21.432 27.771 21.4782 27.6931 21.5171 27.6182C20.9455 27.5818 20.3776 27.5015 19.8183 27.3781C19.5137 27.3118 19.2116 27.2348 18.9124 27.1473L18.8775 27.137L13.1356 25.8588L13.0812 25.8495C12.7755 25.7988 12.4678 25.7611 12.1589 25.7367C11.8962 25.7149 11.6323 25.7101 11.369 25.7223ZM13.3366 24.8534L13.5223 23.8449L13.5408 23.848L19.4069 25.1529L19.45 25.1663L19.4582 25.1694L19.4972 25.1806L19.6593 25.2268C19.8018 25.2658 20.007 25.3191 20.2512 25.3725C20.7498 25.4802 21.3735 25.5797 21.9501 25.5797C22.5277 25.5797 23.1555 25.7952 23.4941 26.4086C23.7834 26.9339 23.7115 27.5022 23.61 27.8777C23.5157 28.2097 23.3751 28.5267 23.1924 28.8195C23.5043 28.6964 23.8357 28.563 24.1835 28.4215L24.2471 28.3948C25.6607 27.8203 27.3555 27.1309 28.8564 26.8836C30.6004 26.5984 31.9085 27.2242 32.5066 28.3814C33.0339 29.4022 32.9169 30.7482 32.1116 31.5669C31.9095 31.772 31.6089 31.9803 31.3216 32.166C31.0098 32.366 30.6281 32.5917 30.2055 32.8297C29.3591 33.3057 28.3117 33.8526 27.2611 34.3809C25.1868 35.4242 23.0016 36.445 22.2999 36.6994C21.0832 37.1406 19.6757 37 18.4251 36.8748L18.2948 36.8615C17.9163 36.8227 17.5374 36.7885 17.1581 36.7589C15.4551 36.6297 14.1502 36.2183 12.9581 35.8428L12.9324 35.8346C11.6501 35.4304 10.4949 35.0703 8.94376 35.0077C8.60316 34.9944 7.68601 35.019 6.80168 35.0518C6.3037 35.0699 5.80579 35.0901 5.30798 35.1124L5.17564 35.1185L4.10255 35.1677V26.0003L5.00226 25.7018C5.73231 25.4592 6.46139 25.2136 7.18947 24.9652C8.46569 24.5292 9.75216 24.0768 10.103 23.9188C10.4795 23.7485 10.9073 23.6931 11.25 23.6726C11.6142 23.6521 11.9886 23.6674 12.3159 23.6921C12.7098 23.7229 13.1021 23.7719 13.4916 23.8388L13.5131 23.8429H13.5193L13.5213 23.8439H13.5234L13.3366 24.8534Z" fill="#3F6561"/>
<path fill-rule="evenodd" clip-rule="evenodd" d="M29.9047 7.49516C30.0071 7.58272 30.0913 7.6896 30.1523 7.80969C30.2134 7.92977 30.2503 8.06072 30.2607 8.19504C30.2712 8.32936 30.2551 8.46443 30.2134 8.59254C30.1717 8.72065 30.1051 8.83928 30.0176 8.94167C26.9594 12.5097 23.1523 17.7387 21.4718 21.989C21.4223 22.1143 21.3485 22.2286 21.2547 22.3254C21.161 22.4222 21.0491 22.4996 20.9254 22.5531C20.8018 22.6066 20.6688 22.6353 20.5341 22.6374C20.3994 22.6396 20.2655 22.6152 20.1402 22.5656C20.0149 22.516 19.9006 22.4422 19.8039 22.3485C19.7071 22.2547 19.6297 22.1428 19.5762 22.0192C19.5226 21.8955 19.494 21.7625 19.4918 21.6278C19.4897 21.4931 19.5141 21.3593 19.5637 21.234C21.3723 16.6595 25.361 11.2212 28.4582 7.60698C28.6353 7.40048 28.8872 7.2728 29.1585 7.25202C29.4298 7.23124 29.6982 7.31907 29.9047 7.49618V7.49516Z" fill="#3F6561"/>
<path fill-rule="evenodd" clip-rule="evenodd" d="M9.62283 10.7863C9.51704 10.8698 9.42874 10.9733 9.36297 11.0909C9.29721 11.2086 9.25527 11.338 9.23955 11.4719C9.22383 11.6057 9.23464 11.7414 9.27136 11.8711C9.30808 12.0007 9.36999 12.1219 9.45356 12.2277C11.7536 15.1463 14.265 18.8816 15.4571 21.9798C15.5595 22.2271 15.7544 22.4246 16.0003 22.5302C16.2462 22.6358 16.5237 22.6411 16.7734 22.545C17.0232 22.4489 17.2255 22.2589 17.3373 22.0158C17.449 21.7726 17.4612 21.4953 17.3714 21.2432C16.0675 17.8537 13.4033 13.9235 11.0642 10.9576C10.8959 10.7439 10.6496 10.6058 10.3795 10.5737C10.1094 10.5416 9.83761 10.618 9.62386 10.7863H9.62283Z" fill="#3F6561"/>
<path d="M0 23.6635H6.15538V37.0001H0V23.6635Z" fill="#3F6561"/>
</svg>
