<svg width="100" height="100" viewBox="0 0 100 100" fill="none" xmlns="http://www.w3.org/2000/svg">
<path d="M78.8699 11.1111C82.2095 11.1111 85.5492 11.1111 88.3322 11.6667C89.4455 24.4444 89.4454 50 74.417 67.7778C63.2849 81.6667 44.3602 88.8889 18.7562 88.8889H11.5203C10.4071 63.3333 15.4165 43.3333 27.1053 30.5556C41.0205 14.4444 63.2849 11.1111 78.8699 11.1111ZM78.8699 0C48.2564 0 -7.96103 11.6667 0.944707 98.8889C7.0674 99.4444 13.1901 100 18.7562 100C118.389 100 98.3512 1.66667 98.3512 1.66667C98.3512 1.66667 90.5587 0 78.8699 0ZM77.7567 22.2222C22.0958 22.2222 22.0958 77.7778 22.0958 77.7778C44.3602 33.3333 77.7567 22.2222 77.7567 22.2222Z" fill="#3F6561" fill-opacity="0.25"/>
</svg>
