<svg width="42" height="39" viewBox="0 0 42 39" fill="none" xmlns="http://www.w3.org/2000/svg">
<path fill-rule="evenodd" clip-rule="evenodd" d="M29.8998 0C27.0089 0 24.2365 1.14839 22.1923 3.19254C20.2956 5.08925 19.1701 7.613 19.0176 10.2766C17.0764 8.68223 14.6336 7.8 12.0998 7.8H9.0998H4.2998H3.7998H1.2998H0.799805V8.3V16.1C0.799805 18.9909 1.94819 21.7633 3.99234 23.8075C6.03649 25.8516 8.80894 27 11.6998 27H14.6998H18.9998V38.2H19.9998V27H21.9998V38.2H22.9998V27V26.5V19.2H27.2998H30.2998C33.1907 19.2 35.9631 18.0516 38.0073 16.0075C40.0514 13.9633 41.1998 11.1909 41.1998 8.3V0.500001V0H40.6998H38.1998H37.6998H32.8998H29.8998ZM27.9332 1.19725C26.0403 1.58095 24.2855 2.51357 22.8994 3.89964C21.0428 5.75625 19.9998 8.27436 19.9998 10.9V11.19C20.8307 12.064 21.5035 13.062 21.9998 14.1393V10.9C21.9998 8.00914 23.1482 5.23668 25.1923 3.19254C26.0039 2.38098 26.9302 1.71062 27.9332 1.19725ZM18.9998 11.6007C17.6298 10.2692 15.9139 9.37175 14.0664 8.99725C15.0694 9.51062 15.9957 10.181 16.8073 10.9925C17.7272 11.9125 18.4657 12.9799 18.9998 14.1393V11.6007ZM9.0998 8.8H4.7998V16.1C4.7998 18.7256 5.84284 21.2437 7.69945 23.1004C9.55606 24.957 12.0742 26 14.6998 26H18.2927L8.74625 16.4536L9.45336 15.7464L18.9998 25.2929V23.7071L11.7463 16.4536L12.4534 15.7464L18.9998 22.2929V19.2V18.7C18.9998 16.0744 17.9568 13.5563 16.1002 11.6996C14.2436 9.84303 11.7254 8.8 9.0998 8.8ZM19.9998 24.7071V26H21.2927L19.9998 24.7071ZM19.9998 23.2929V19.2H21.9998V25.2929L19.9998 23.2929ZM23.7069 18.2H27.2998C29.9254 18.2 32.4436 17.157 34.3002 15.3004C36.1568 13.4437 37.1998 10.9256 37.1998 8.3V1H32.8998C30.2742 1 27.7561 2.04303 25.8994 3.89964C24.0428 5.75625 22.9998 8.27436 22.9998 10.9V14.4929L29.5463 7.94645L30.2534 8.65355L22.9998 15.9071V17.4V17.4929L32.5463 7.94645L33.2534 8.65355L23.7069 18.2ZM21.8607 17.0462C21.9252 17.4264 21.9676 17.8116 21.9872 18.2H20.7069L21.8607 17.0462ZM21.5949 15.8977L19.9998 17.4929V17.4V12.7334C20.7198 13.6866 21.259 14.7594 21.5949 15.8977ZM38.1998 1V8.3C38.1998 11.1909 37.0514 13.9633 35.0073 16.0075C34.1957 16.819 33.2694 17.4894 32.2664 18.0028C34.1593 17.6191 35.9141 16.6864 37.3002 15.3004C39.1568 13.4437 40.1998 10.9256 40.1998 8.3V1H38.1998ZM9.73322 25.8028C8.73024 25.2894 7.80389 24.619 6.99234 23.8075C4.94819 21.7633 3.7998 18.9909 3.7998 16.1V8.8H1.7998V16.1C1.7998 18.7256 2.84284 21.2437 4.69945 23.1004C6.08552 24.4864 7.84028 25.4191 9.73322 25.8028Z" fill="#3F6561"/>
</svg>
