<svg width="512" height="512" viewBox="0 0 512 512" fill="none" xmlns="http://www.w3.org/2000/svg">
<rect width="512" height="512" rx="100" fill="white"/>
<path d="M240.139 377.98L238.294 201.821L265.3 174.816H270.207V377.98H169.555C169.555 377.98 170.172 327.65 130.883 308.006C91.6019 288.361 96.1619 220.755 96.1619 220.755C96.1619 132.525 167.687 61 255.917 61C344.147 61 415.673 132.525 415.673 220.755C415.673 220.755 418.026 239.613 410.11 263.37C404.848 279.172 394.802 292.867 382.371 303.963C370.204 314.819 351.493 335.505 343.854 365.095C332.273 409.97 312.999 406.837 312.999 406.837H183.242" stroke="#AF8954" stroke-width="12" stroke-miterlimit="10" stroke-linecap="round" stroke-linejoin="round"/>
<path d="M200.718 428.966H307.875C274.466 459.004 234.128 459.004 200.718 428.966Z" fill="#475554"/>
<path d="M265.3 174.816L305.507 139.369" stroke="#AF8954" stroke-width="7" stroke-miterlimit="10" stroke-linecap="round"/>
<path d="M205.873 133.312L255.385 184.73" stroke="#AF8954" stroke-width="7" stroke-miterlimit="10" stroke-linecap="round"/>
<path d="M270.708 233.942L329.75 174.816" stroke="#AF8954" stroke-width="7" stroke-miterlimit="10" stroke-linecap="round"/>
<path d="M270.708 298.153L360.135 208.727" stroke="#AF8954" stroke-width="7" stroke-miterlimit="10" stroke-linecap="round"/>
<path d="M238.611 231.758L181.522 173.211" stroke="#AF8954" stroke-width="7" stroke-miterlimit="10" stroke-linecap="round"/>
<path d="M239.274 295.282L153.444 208.727" stroke="#AF8954" stroke-width="7" stroke-miterlimit="10" stroke-linecap="round"/>
<path d="M305.507 265.252C305.507 265.252 297.336 241.202 315.421 223.795C315.421 223.795 326.848 236.233 305.507 265.252Z" fill="#AF8954"/>
<path d="M308.855 261.194C308.3 260.6 327.79 248.478 346.184 260.114C346.192 260.114 325.089 278.508 308.855 261.194Z" fill="#AF8954"/>
<path d="M335.498 232.669C335.498 232.669 323.075 214.714 338.723 191.235C338.723 191.235 351.832 222.785 335.498 233.942" fill="#AF8954"/>
<path d="M336.949 234.227C336.949 234.227 353.831 220.377 378.506 234.065C378.506 234.065 348.136 249.705 335.683 234.335" fill="#AF8954"/>
<path d="M290.268 214.359C290.268 214.359 278.193 196.759 289.242 176.05C289.242 176.05 305.237 197.315 289.242 214.359" fill="#AF8954"/>
<path d="M312.574 192.014C312.574 192.014 296.764 177.2 311.069 153.258C311.069 153.258 323.963 180.618 312.574 192.014Z" fill="#AF8954"/>
<path d="M292.197 210.061C292.197 210.061 307.991 196.042 329.958 212.067C329.95 212.06 302.243 222.129 292.197 210.061Z" fill="#AF8954"/>
<path d="M314.256 188.812C314.256 188.812 323.384 180.71 336.069 189.969C336.069 189.969 320.059 195.787 314.256 188.812Z" fill="#AF8954"/>
<path d="M283.177 281.656C283.177 281.656 270.909 261.078 290.376 239.759C290.376 239.759 302.004 263.138 283.177 281.656Z" fill="#AF8954"/>
<path d="M217.084 269.82C216.651 270.901 205.656 251.866 211.636 237.136C211.636 237.136 225.285 249.335 217.084 269.82Z" fill="#AF8954"/>
<path d="M196.359 252.005C196.359 252.005 184.052 236.812 192.802 218.395C192.802 218.395 207.994 238.463 195.333 252.251" fill="#AF8954"/>
<path d="M174.03 225.408C174.03 225.408 161.723 210.216 170.473 191.798C170.473 191.798 185.665 211.867 173.003 225.655" fill="#AF8954"/>
<path d="M216.212 206.281C216.212 206.281 204.283 191.582 213.025 173.172C213.033 173.172 228.874 192.492 216.212 206.281Z" fill="#AF8954"/>
<path d="M239.56 164.5C239.56 164.5 224.236 145.627 235.471 121.978C235.471 121.978 255.817 146.792 239.56 164.5Z" fill="#AF8954"/>
<path d="M235 160.171C235 160.171 217.771 168.736 201.452 155.974C201.459 155.974 224.136 144.554 235 160.171Z" fill="#AF8954"/>
<path d="M276.171 161.707C276.171 161.707 264.135 140.581 279.073 119.085C279.08 119.085 295.106 146.892 276.171 161.707Z" fill="#AF8954"/>
<path d="M197.1 185.155C197.1 185.155 185.171 170.456 193.913 152.039C193.913 152.046 209.754 171.367 197.1 185.155Z" fill="#AF8954"/>
<path d="M194.839 251.842C194.839 251.842 178.79 263.015 161.06 252.961C161.06 252.961 182.178 239.258 195.009 252.884" fill="#AF8954"/>
<path d="M172.51 226.442C172.51 226.442 156.461 237.615 138.73 227.561C138.73 227.561 159.848 213.858 172.679 227.484" fill="#AF8954"/>
<path d="M215.302 206.126C215.302 206.126 199.253 217.299 181.522 207.245C181.522 207.245 202.64 193.542 215.471 207.168" fill="#AF8954"/>
</svg>
